<?xml version="1.0" encoding="iso-8859-1"?>
<!-- Generator: Adobe Illustrator 19.0.0, SVG Export Plug-In . SVG Version: 6.00 Build 0)  -->
<svg version="1.1" id="Layer_1" xmlns="http://www.w3.org/2000/svg" xmlns:xlink="http://www.w3.org/1999/xlink" x="0px" y="0px"
	 viewBox="0 0 341.883 341.883" style="enable-background:new 0 0 341.883 341.883;" xml:space="preserve">
<g>
	<rect x="5.852" y="23.907" style="fill:#9A6B58;" width="330.18" height="294.069"/>
	<rect x="5.852" y="23.907" style="fill:#734F42;" width="330.18" height="9.365"/>
	<g>
		<rect x="23.005" y="241.59" style="fill:#B28978;" width="135.787" height="57.574"/>
		<circle style="fill:#9A6B58;" cx="90.898" cy="262.481" r="7.226"/>
		<circle style="fill:#FED771;" cx="90.898" cy="260.004" r="7.226"/>
	</g>
	<g>
		<rect x="183.091" y="241.59" style="fill:#B28978;" width="135.787" height="57.574"/>
		<circle style="fill:#9A6B58;" cx="250.984" cy="262.481" r="7.226"/>
		<circle style="fill:#FED771;" cx="250.984" cy="260.004" r="7.226"/>
	</g>
	<rect y="314.598" style="fill:#734F42;" width="341.883" height="14.087"/>
	<rect y="13.198" style="fill:#B28978;" width="341.883" height="14.087"/>
	<rect x="112.698" y="43.754" style="fill:#734F42;" width="89.692" height="180.425"/>
	<rect x="190.204" y="43.754" style="fill:#B28978;" width="12.186" height="180.425"/>
	<g>
		<rect x="220.698" y="46.931" style="fill:#B28978;" width="98.18" height="93.021"/>
		<circle style="fill:#9A6B58;" cx="233.84" cy="94.68" r="7.225"/>
		<circle style="fill:#FED771;" cx="233.84" cy="92.203" r="7.225"/>
	</g>
	<g>
		<rect x="220.698" y="154.296" style="fill:#B28978;" width="98.18" height="69.883"/>
		<circle style="fill:#9A6B58;" cx="233.84" cy="190.476" r="7.225"/>
		<circle style="fill:#FED771;" cx="233.84" cy="187.999" r="7.225"/>
	</g>
	<g>
		<rect x="112.698" y="64.083" style="fill:#5C6670;" width="77.506" height="4.447"/>
		<g>
			<polygon style="fill:#FFFFFF;" points="154.957,79.556 88.295,79.556 57.145,103.954 66.075,123.996 88.295,114.847 
				88.295,175.408 154.957,175.408 154.957,114.847 177.178,123.996 186.109,103.954 			"/>
			<path style="fill:#D1D3D3;" d="M108.038,79.556c0,7.504,6.084,13.588,13.589,13.588c7.503,0,13.589-6.084,13.589-13.588H108.038z
				"/>
			<path style="fill:#333E48;" d="M107.848,82.096l12.472-4.442l0.006-5.416l-2.627-2.628c-1.05-1.049-1.628-2.444-1.628-3.928
				c0-3.064,2.492-5.556,5.557-5.556c3.063,0,5.555,2.492,5.555,5.556c0,0.722-0.584,1.307-1.307,1.307
				c-0.722,0-1.307-0.585-1.307-1.307c0-1.623-1.32-2.941-2.941-2.941c-1.622,0-2.943,1.319-2.943,2.941
				c0,0.785,0.307,1.524,0.862,2.079l3.012,3.012c0.245,0.245,0.384,0.578,0.383,0.925l-0.007,5.956l12.472,4.442
				c0.681,0.242,1.035,0.99,0.794,1.67c-0.243,0.68-0.99,1.034-1.67,0.793l-12.902-4.596l-12.902,4.596
				c-0.146,0.051-0.293,0.076-0.438,0.076c-0.537,0-1.04-0.334-1.23-0.869C106.813,83.086,107.168,82.338,107.848,82.096z"/>
			<path style="fill:#E4E4E4;" d="M134.398,79.556c0,7.054-5.717,12.771-12.771,12.771s-12.772-5.717-12.772-12.771h-2.858
				c0,8.633,6.998,15.631,15.631,15.631c8.631,0,15.629-6.998,15.629-15.631H134.398z"/>
		</g>
		<rect x="122.783" y="64.083" style="fill:#5C6670;" width="6.114" height="4.447"/>
	</g>
	<g>
		<rect x="23.005" y="43.754" style="fill:#B28978;" width="89.693" height="180.425"/>
		<circle style="fill:#9A6B58;" cx="97.569" cy="135.205" r="7.226"/>
		<circle style="fill:#FED771;" cx="97.569" cy="132.728" r="7.226"/>
	</g>
</g>
<g>
</g>
<g>
</g>
<g>
</g>
<g>
</g>
<g>
</g>
<g>
</g>
<g>
</g>
<g>
</g>
<g>
</g>
<g>
</g>
<g>
</g>
<g>
</g>
<g>
</g>
<g>
</g>
<g>
</g>
</svg>
